<svg xmlns="http://www.w3.org/2000/svg" viewBox="0 0 512 512">
  <path fill="#25d366" d="M256 0C114.836 0 0 114.837 0 256c0 45.26 11.766 89.49 34.04 128.4L0 512l132.67-34.54C171.24 500.24 213.24 512 256 512c141.164 0 256-114.836 256-256S397.164 0 256 0zm0 472c-39.35 0-77.77-10.21-111.43-29.56l-7.94-4.6-78.42 20.42 20.81-76.44-5.13-7.87C55.44 344.08 44 301.02 44 256 44 137.64 137.64 44 256 44s212 93.64 212 212-93.64 216-212 216z"/>
  <path fill="#25d366" d="M391.7 313.9c-6.54-3.27-38.62-19.04-44.63-21.23-6.01-2.19-10.39-3.27-14.76 3.27-4.37 6.54-16.94 21.23-20.75 25.61-3.81 4.37-7.65 4.92-14.19 1.64-6.54-3.27-27.6-10.18-52.57-32.47-19.41-17.3-32.52-38.65-36.33-45.19-3.81-6.54-.41-10.08 2.86-13.35 2.95-2.95 6.54-7.65 9.81-11.48 3.27-3.81 4.37-6.54 6.54-10.9 2.19-4.37 1.09-8.19-.55-11.48-1.64-3.27-14.76-35.55-20.26-48.62-5.34-12.72-10.77-10.99-14.76-11.17-3.81-.16-8.19-.19-12.56-.19s-11.48 1.64-17.53 8.19c-6.01 6.54-23.01 22.45-23.01 54.7s23.55 63.49 26.82 67.86c3.27 4.37 46.3 70.86 112.27 99.37 15.69 6.77 27.93 10.83 37.49 13.87 15.73 5 30.06 4.3 41.38 2.6 12.62-1.88 38.62-15.8 44.1-31.12 5.48-15.32 5.48-28.44 3.81-31.12-1.65-2.73-6.02-4.37-12.57-7.65z"/>
</svg>
